<svg width="136" height="17" fill="none" xmlns="http://www.w3.org/2000/svg"><path d="M5.404 4.2c.868 0 1.62.145 2.254.434.644.29 1.139.7 1.484 1.232s.518 1.162.518 1.89c0 .719-.173 1.349-.518 1.89-.345.532-.84.943-1.484 1.232-.635.28-1.386.42-2.254.42H3.43V14H1.162V4.2h4.242zm-.126 5.25c.681 0 1.2-.145 1.554-.434.355-.299.532-.719.532-1.26 0-.55-.177-.97-.532-1.26-.355-.299-.873-.448-1.554-.448H3.43V9.45h1.848zm11.314 4.718c-1.4 0-2.492-.387-3.276-1.162-.775-.775-1.162-1.88-1.162-3.318V4.2h2.268v5.404c0 1.755.728 2.632 2.184 2.632.71 0 1.25-.21 1.624-.63.373-.43.56-1.097.56-2.002V4.2h2.24v5.488c0 1.437-.392 2.543-1.176 3.318-.774.775-1.862 1.162-3.262 1.162zm14.875-5.264c.56.177.999.476 1.316.896.318.41.476.92.476 1.526 0 .859-.336 1.521-1.008 1.988-.662.457-1.633.686-2.912.686h-5.068V4.2h4.788c1.195 0 2.11.229 2.744.686.644.457.966 1.078.966 1.862 0 .476-.116.9-.35 1.274a2.353 2.353 0 01-.952.882zm-4.942-2.996v2.31h2.254c.56 0 .985-.098 1.274-.294.29-.196.434-.485.434-.868s-.144-.667-.434-.854c-.289-.196-.714-.294-1.274-.294h-2.254zm2.646 6.384c.598 0 1.046-.098 1.344-.294.308-.196.462-.5.462-.91 0-.812-.602-1.218-1.806-1.218h-2.646v2.422h2.646zM35.977 4.2h2.268v7.952h4.913V14h-7.181V4.2zm9.449 0h2.268V14h-2.268V4.2zm10.283 9.968c-.998 0-1.904-.215-2.716-.644a4.992 4.992 0 01-1.904-1.806c-.457-.775-.686-1.647-.686-2.618 0-.97.23-1.839.686-2.604a4.856 4.856 0 011.904-1.806c.812-.439 1.722-.658 2.73-.658.85 0 1.615.15 2.296.448a4.6 4.6 0 011.736 1.288L58.3 7.112c-.662-.765-1.484-1.148-2.464-1.148-.606 0-1.148.135-1.624.406-.476.261-.849.63-1.12 1.106A3.332 3.332 0 0052.7 9.1c0 .607.131 1.148.392 1.624.271.476.644.85 1.12 1.12.476.261 1.018.392 1.624.392.98 0 1.802-.387 2.464-1.162l1.456 1.344a4.538 4.538 0 01-1.736 1.302c-.69.299-1.46.448-2.31.448zM68.55 11.9H64l-.867 2.1h-2.324l4.368-9.8h2.24l4.382 9.8h-2.38l-.868-2.1zm-.713-1.722l-1.554-3.752-1.554 3.752h3.108zm7.516-4.13h-3.136V4.2h8.54v1.848H77.62V14h-2.268V6.048zM82.976 4.2h2.269V14h-2.269V4.2zm10.34 9.968c-1.017 0-1.937-.22-2.758-.658a4.964 4.964 0 01-1.918-1.806c-.457-.775-.686-1.643-.686-2.604 0-.961.229-1.825.686-2.59a4.93 4.93 0 011.918-1.82c.821-.439 1.74-.658 2.758-.658 1.017 0 1.932.22 2.744.658a4.93 4.93 0 011.918 1.82c.467.765.7 1.629.7 2.59 0 .961-.233 1.83-.7 2.604a4.964 4.964 0 01-1.918 1.806c-.812.439-1.727.658-2.744.658zm0-1.932c.579 0 1.102-.13 1.568-.392.467-.27.83-.644 1.092-1.12.27-.476.406-1.017.406-1.624 0-.607-.135-1.148-.406-1.624a2.767 2.767 0 00-1.092-1.106 3.068 3.068 0 00-1.568-.406c-.579 0-1.101.135-1.568.406a2.86 2.86 0 00-1.106 1.106c-.261.476-.392 1.017-.392 1.624 0 .607.13 1.148.392 1.624.27.476.64.85 1.106 1.12.467.261.99.392 1.568.392zM110.371 4.2V14h-1.862l-4.886-5.95V14h-2.24V4.2h1.876l4.872 5.95V4.2h2.24zm6.538 9.968a8.268 8.268 0 01-2.254-.308c-.718-.215-1.297-.49-1.736-.826l.77-1.708c.42.308.92.555 1.498.742a5.63 5.63 0 001.736.28c.644 0 1.12-.093 1.428-.28.308-.196.462-.453.462-.77a.702.702 0 00-.28-.574 1.91 1.91 0 00-.7-.378 13.12 13.12 0 00-1.148-.308 16.006 16.006 0 01-1.834-.532 3.037 3.037 0 01-1.232-.854c-.336-.392-.504-.915-.504-1.568 0-.57.154-1.083.462-1.54.308-.467.77-.835 1.386-1.106.626-.27 1.386-.406 2.282-.406.626 0 1.237.075 1.834.224a5.41 5.41 0 011.568.644l-.7 1.722c-.905-.513-1.81-.77-2.716-.77-.634 0-1.106.103-1.414.308-.298.205-.448.476-.448.812 0 .336.173.588.518.756.355.159.892.317 1.61.476.747.177 1.358.355 1.834.532.476.177.882.457 1.218.84.346.383.518.9.518 1.554 0 .56-.158 1.073-.476 1.54-.308.457-.774.821-1.4 1.092-.625.27-1.386.406-2.282.406z" fill="#F0145A"/><path d="M127.5 4l4.5 4.5-4.5 4.5" stroke="#F0145A" stroke-width="2"/></svg>