<svg width="94" height="17" fill="none" xmlns="http://www.w3.org/2000/svg"><path d="M4.382 14.168a8.265 8.265 0 01-2.254-.308c-.719-.215-1.297-.49-1.736-.826l.77-1.708c.42.308.92.555 1.498.742.579.187 1.157.28 1.736.28.644 0 1.12-.093 1.428-.28.308-.196.462-.453.462-.77a.703.703 0 00-.28-.574 1.918 1.918 0 00-.7-.378c-.28-.093-.663-.196-1.148-.308a15.966 15.966 0 01-1.834-.532 3.033 3.033 0 01-1.232-.854C.756 8.26.588 7.737.588 7.084c0-.57.154-1.083.462-1.54.308-.467.77-.835 1.386-1.106.625-.27 1.386-.406 2.282-.406a7.55 7.55 0 011.834.224A5.44 5.44 0 018.12 4.9l-.7 1.722c-.905-.513-1.81-.77-2.716-.77-.635 0-1.106.103-1.414.308-.299.205-.448.476-.448.812 0 .336.173.588.518.756.355.159.891.317 1.61.476.747.177 1.358.355 1.834.532.476.177.882.457 1.218.84.345.383.518.9.518 1.554a2.68 2.68 0 01-.476 1.54c-.308.457-.775.821-1.4 1.092-.625.27-1.386.406-2.282.406zm14.296-1.988V14H11.09V4.2h7.406v1.82h-5.152v2.128h4.55v1.764h-4.55v2.268h5.334zM27.726 14l-1.89-2.73H23.75V14h-2.268V4.2h4.242c.868 0 1.62.145 2.254.434.644.29 1.139.7 1.484 1.232.346.532.518 1.162.518 1.89s-.177 1.358-.532 1.89c-.345.523-.84.924-1.484 1.204L30.162 14h-2.436zm-.042-6.244c0-.55-.177-.97-.532-1.26-.354-.299-.872-.448-1.554-.448H23.75v3.416h1.848c.682 0 1.2-.15 1.554-.448.355-.299.532-.719.532-1.26zM42.2 4.2L37.957 14h-2.24L31.49 4.2h2.45l2.982 7 3.024-7H42.2zm1.819 0h2.267V14h-2.267V4.2zM54.3 14.168c-.998 0-1.904-.215-2.716-.644a4.992 4.992 0 01-1.904-1.806c-.457-.775-.686-1.647-.686-2.618 0-.97.229-1.839.686-2.604a4.856 4.856 0 011.904-1.806c.812-.439 1.722-.658 2.73-.658.85 0 1.615.15 2.296.448a4.6 4.6 0 011.736 1.288L56.89 7.112c-.662-.765-1.484-1.148-2.464-1.148-.606 0-1.148.135-1.624.406a2.83 2.83 0 00-1.12 1.106c-.261.476-.392 1.017-.392 1.624 0 .607.13 1.148.392 1.624.27.476.644.85 1.12 1.12.476.261 1.018.392 1.624.392.98 0 1.802-.387 2.464-1.162l1.456 1.344a4.538 4.538 0 01-1.736 1.302c-.69.299-1.46.448-2.31.448zm14.166-1.988V14h-7.588V4.2h7.406v1.82h-5.152v2.128h4.55v1.764h-4.55v2.268h5.334zm6.024 1.988a8.264 8.264 0 01-2.254-.308c-.718-.215-1.297-.49-1.736-.826l.77-1.708c.42.308.92.555 1.498.742.579.187 1.158.28 1.736.28.644 0 1.12-.093 1.428-.28.308-.196.462-.453.462-.77a.703.703 0 00-.28-.574 1.919 1.919 0 00-.7-.378c-.28-.093-.662-.196-1.148-.308a15.964 15.964 0 01-1.834-.532 3.032 3.032 0 01-1.232-.854c-.336-.392-.504-.915-.504-1.568 0-.57.154-1.083.462-1.54.308-.467.77-.835 1.386-1.106.626-.27 1.386-.406 2.282-.406.626 0 1.237.075 1.834.224.598.15 1.12.364 1.568.644l-.7 1.722c-.905-.513-1.81-.77-2.716-.77-.634 0-1.106.103-1.414.308-.298.205-.448.476-.448.812 0 .336.173.588.518.756.355.159.892.317 1.61.476a15.97 15.97 0 011.834.532c.476.177.882.457 1.218.84.346.383.518.9.518 1.554a2.68 2.68 0 01-.476 1.54c-.308.457-.774.821-1.4 1.092-.625.27-1.386.406-2.282.406z" fill="#24A3FF"/><path d="M85.5 4L90 8.5 85.5 13" stroke="#24A3FF" stroke-width="2"/></svg>