<svg width="99" height="17" fill="none" xmlns="http://www.w3.org/2000/svg"><path d="M5.012 10.052H3.444V14H1.19V4.2h2.254v3.962h1.624L7.644 4.2h2.394L6.832 8.932 10.136 14H7.56l-2.548-3.948zm11.822 4.116c-1.018 0-1.937-.22-2.758-.658a4.964 4.964 0 01-1.918-1.806c-.458-.775-.686-1.643-.686-2.604 0-.961.228-1.825.686-2.59a4.93 4.93 0 011.918-1.82c.82-.439 1.74-.658 2.758-.658 1.017 0 1.931.22 2.744.658a4.93 4.93 0 011.918 1.82c.466.765.7 1.629.7 2.59 0 .961-.234 1.83-.7 2.604a4.964 4.964 0 01-1.918 1.806c-.813.439-1.727.658-2.744.658zm0-1.932c.578 0 1.1-.13 1.567-.392.467-.27.831-.644 1.093-1.12.27-.476.405-1.017.405-1.624 0-.607-.135-1.148-.405-1.624A2.768 2.768 0 0018.4 6.37a3.068 3.068 0 00-1.567-.406c-.58 0-1.102.135-1.569.406-.466.261-.835.63-1.106 1.106a3.332 3.332 0 00-.392 1.624c0 .607.131 1.148.393 1.624.27.476.639.85 1.105 1.12.467.261.99.392 1.569.392zM33.86 14l-.014-5.866-2.884 4.83h-1.008L27.07 8.246V14h-2.128V4.2h1.876l3.668 6.09 3.612-6.09h1.876l.014 9.8H33.86zm12.198-2.1h-4.55L40.64 14h-2.324l4.368-9.8h2.24l4.382 9.8h-2.38l-.868-2.1zm-.714-1.722L43.79 6.426l-1.554 3.752h3.108zM60.595 4.2V14h-2.268V9.982h-4.452V14h-2.268V4.2h2.268v3.864h4.452V4.2h2.268zm13.495 7.952v3.878h-2.1V14h-6.916v2.03h-2.1l.014-3.878h.392c.588-.019 1.003-.448 1.246-1.288.242-.84.392-2.04.448-3.598l.112-3.066h7.532v7.952h1.372zm-7.014-4.676c-.047 1.167-.145 2.147-.294 2.94-.15.784-.378 1.363-.686 1.736h4.382V6.048h-3.36l-.042 1.428zM83.335 11.9h-4.55l-.868 2.1h-2.325l4.368-9.8h2.24l4.382 9.8h-2.38l-.867-2.1zm-.714-1.722l-1.554-3.752-1.554 3.752h3.108z" fill="#F0145A"/><path d="M90.5 4L95 8.5 90.5 13" stroke="#F0145A" stroke-width="2"/></svg>